REM DIRINDEX 1\5,1\2\6,1\2\7,1\3\8,1\3\9,1\4\10,1\4\11,1\4\12
REM DIRNAME cjc026,folder01,folder02,folder03,folder04,folder05,folder06,folder07,folder08,folder09,folder10,folder11
TITLE ""
FILE "EJE_DB3000_5th_6C_52.mp3" MP3
  TRACK 01 AUDIO
    TITLE "0:"
    INDEX 01 00:00:00
  TRACK 02 AUDIO
    TITLE "10:cjc026_12174"
    INDEX 01 00:00:08
  TRACK 03 AUDIO
    TITLE "0:"
    INDEX 01 00:01:35
  TRACK 04 AUDIO
    TITLE "11:cjc026_12175"
    INDEX 01 00:01:70
  TRACK 05 AUDIO
    TITLE "0:"
    INDEX 01 00:03:45
  TRACK 06 AUDIO
    TITLE "12:cjc026_12176"
    INDEX 01 00:04:05
  TRACK 07 AUDIO
    TITLE "0:"
    INDEX 01 00:05:30
  TRACK 08 AUDIO
    TITLE "10:cjc026_12177"
    INDEX 01 00:05:67
  TRACK 09 AUDIO
    TITLE "0:"
    INDEX 01 00:07:17
  TRACK 10 AUDIO
    TITLE "11:cjc026_12178"
    INDEX 01 00:07:55
  TRACK 11 AUDIO
    TITLE "0:"
    INDEX 01 00:09:48
  TRACK 12 AUDIO
    TITLE "12:cjc026_12179"
    INDEX 01 00:10:11
  TRACK 13 AUDIO
    TITLE "0:"
    INDEX 01 00:11:33
  TRACK 14 AUDIO
    TITLE "10:cjc026_12180"
    INDEX 01 00:11:74
  TRACK 15 AUDIO
    TITLE "0:"
    INDEX 01 00:13:37
  TRACK 16 AUDIO
    TITLE "11:cjc026_12181"
    INDEX 01 00:13:72
  TRACK 17 AUDIO
    TITLE "0:"
    INDEX 01 00:15:46
  TRACK 18 AUDIO
    TITLE "12:cjc026_12182"
    INDEX 01 00:16:09
  TRACK 19 AUDIO
    TITLE "0:"
    INDEX 01 00:17:50
  TRACK 20 AUDIO
    TITLE "10:cjc026_12183"
    INDEX 01 00:18:10
  TRACK 21 AUDIO
    TITLE "0:"
    INDEX 01 00:19:46
  TRACK 22 AUDIO
    TITLE "11:cjc026_12184"
    INDEX 01 00:20:09
  TRACK 23 AUDIO
    TITLE "0:"
    INDEX 01 00:21:61
  TRACK 24 AUDIO
    TITLE "12:cjc026_12185"
    INDEX 01 00:22:18
  TRACK 25 AUDIO
    TITLE "0:"
    INDEX 01 00:23:59
  TRACK 26 AUDIO
    TITLE "10:cjc026_12186"
    INDEX 01 00:24:19
  TRACK 27 AUDIO
    TITLE "0:"
    INDEX 01 00:25:42
  TRACK 28 AUDIO
    TITLE "11:cjc026_12187"
    INDEX 01 00:26:02
  TRACK 29 AUDIO
    TITLE "0:"
    INDEX 01 00:27:27
  TRACK 30 AUDIO
    TITLE "12:cjc026_12188"
    INDEX 01 00:27:64
  TRACK 31 AUDIO
    TITLE "0:"
    INDEX 01 00:29:12
  TRACK 32 AUDIO
    TITLE "10:cjc026_12189"
    INDEX 01 00:29:47
  TRACK 33 AUDIO
    TITLE "0:"
    INDEX 01 00:31:05
  TRACK 34 AUDIO
    TITLE "11:cjc026_12190"
    INDEX 01 00:31:42
  TRACK 35 AUDIO
    TITLE "0:"
    INDEX 01 00:33:57
  TRACK 36 AUDIO
    TITLE "12:cjc026_12191"
    INDEX 01 00:34:17
  TRACK 37 AUDIO
    TITLE "0:"
    INDEX 01 00:35:50
  TRACK 38 AUDIO
    TITLE "10:cjc026_12192"
    INDEX 01 00:36:13
  TRACK 39 AUDIO
    TITLE "0:"
    INDEX 01 00:37:51
  TRACK 40 AUDIO
    TITLE "11:cjc026_12193"
    INDEX 01 00:38:11
  TRACK 41 AUDIO
    TITLE "0:"
    INDEX 01 00:40:15
  TRACK 42 AUDIO
    TITLE "12:cjc026_12194"
    INDEX 01 00:40:48
  TRACK 43 AUDIO
    TITLE "0:"
    INDEX 01 00:42:14
  TRACK 44 AUDIO
    TITLE "10:cjc026_12195"
    INDEX 01 00:42:46
  TRACK 45 AUDIO
    TITLE "0:"
    INDEX 01 00:44:18
  TRACK 46 AUDIO
    TITLE "11:cjc026_12196"
    INDEX 01 00:44:50
  TRACK 47 AUDIO
    TITLE "0:"
    INDEX 01 00:46:73
  TRACK 48 AUDIO
    TITLE "12:cjc026_12197"
    INDEX 01 00:47:33
  TRACK 49 AUDIO
    TITLE "0:"
    INDEX 01 00:49:02
  TRACK 50 AUDIO
    TITLE "10:cjc026_12198"
    INDEX 01 00:49:37
  TRACK 51 AUDIO
    TITLE "0:"
    INDEX 01 00:51:03
  TRACK 52 AUDIO
    TITLE "11:cjc026_12199"
    INDEX 01 00:51:38
  TRACK 53 AUDIO
    TITLE "0:"
    INDEX 01 00:53:53
  TRACK 54 AUDIO
    TITLE "12:cjc026_12200"
    INDEX 01 00:54:13
  TRACK 55 AUDIO
    TITLE "0:"
    INDEX 01 00:55:51
  TRACK 56 AUDIO
    TITLE "10:cjc026_12201"
    INDEX 01 00:56:12
  TRACK 57 AUDIO
    TITLE "0:"
    INDEX 01 00:58:53
  TRACK 58 AUDIO
    TITLE "11:cjc026_12202"
    INDEX 01 00:59:13
  TRACK 59 AUDIO
    TITLE "0:"
    INDEX 01 01:02:10
  TRACK 60 AUDIO
    TITLE "12:cjc026_12203"
    INDEX 01 01:02:42
  TRACK 61 AUDIO
    TITLE "0:"
    INDEX 01 01:05:09
  TRACK 62 AUDIO
    TITLE "10:cjc026_12204"
    INDEX 01 01:05:44
  TRACK 63 AUDIO
    TITLE "0:"
    INDEX 01 01:06:66
  TRACK 64 AUDIO
    TITLE "11:cjc026_12205"
    INDEX 01 01:07:29
  TRACK 65 AUDIO
    TITLE "0:"
    INDEX 01 01:09:33
  TRACK 66 AUDIO
    TITLE "12:cjc026_12206"
    INDEX 01 01:09:68
  TRACK 67 AUDIO
    TITLE "0:"
    INDEX 01 01:11:12
  TRACK 68 AUDIO
    TITLE "10:cjc026_12207"
    INDEX 01 01:11:50
  TRACK 69 AUDIO
    TITLE "0:"
    INDEX 01 01:13:00
  TRACK 70 AUDIO
    TITLE "11:cjc026_12208"
    INDEX 01 01:13:35
  TRACK 71 AUDIO
    TITLE "0:"
    INDEX 01 01:15:39
  TRACK 72 AUDIO
    TITLE "12:cjc026_12209"
    INDEX 01 01:15:71
  TRACK 73 AUDIO
    TITLE "0:"
    INDEX 01 01:17:21
  TRACK 74 AUDIO
    TITLE "10:cjc026_12210"
    INDEX 01 01:17:57
  TRACK 75 AUDIO
    TITLE "0:"
    INDEX 01 01:24:12
  TRACK 76 AUDIO
    TITLE "11:cjc026_12211"
    INDEX 01 01:24:50
  TRACK 77 AUDIO
    TITLE "0:"
    INDEX 01 01:27:44
  TRACK 78 AUDIO
    TITLE "12:cjc026_12212"
    INDEX 01 01:28:04
  TRACK 79 AUDIO
    TITLE "0:"
    INDEX 01 01:34:34
  TRACK 80 AUDIO
    TITLE "10:cjc026_12213"
    INDEX 01 01:34:69
  TRACK 81 AUDIO
    TITLE "0:"
    INDEX 01 01:37:42
  TRACK 82 AUDIO
    TITLE "11:cjc026_12214"
    INDEX 01 01:38:02
  TRACK 83 AUDIO
    TITLE "0:"
    INDEX 01 01:40:14
  TRACK 84 AUDIO
    TITLE "12:cjc026_12215"
    INDEX 01 01:40:49
  TRACK 85 AUDIO
    TITLE "0:"
    INDEX 01 01:43:21
